# xmcd
#
# Track frame offsets:
#	150
#	16130
#	31737
#	52045
#	72145
#	91329
#	106242
#	122170
#	142002
#	159457
#
# Disc length: 2386 seconds
#
# Revision: 0
# Processed by: cddbd v1.4PL0 Copyright (c) Steve Scherf et al.
# Submitted via: dBpowerAMP V4.0
#
DISCID=7d09500a
DTITLE=Suzanne Gitzi - Fallen Angel
DYEAR=1900
DGENRE=Country
TTITLE0=Fallen Angel
TTITLE1=The Runaround
TTITLE2=House Without A Soul
TTITLE3=Teardrops In The Rain
TTITLE4=Look Before You Lep
TTITLE5=The Test of Time
TTITLE6=Endless Night
TTITLE7=A Note On The Pillow
TTITLE8=A Hell Of A Wake
TTITLE9=She's With You
EXTD=
EXTT0=
EXTT1=
EXTT2=
EXTT3=
EXTT4=
EXTT5=
EXTT6=
EXTT7=
EXTT8=
EXTT9=
PLAYORDER=
